<?xml version="1.0" encoding="UTF-8"?>
<!--
  Favicon — //MW logo mark in Ignition lime (#bffd76).
  Geometry matches /public/brand/mw-logo-currentcolor.svg (source 368x121),
  padded to a square and vertically centred for tab/home-screen rendering.
-->
<svg xmlns="http://www.w3.org/2000/svg" viewBox="0 0 368 368" role="img" aria-label="//MW">
  <title>Madera Web</title>
  <g fill="#bffd76" transform="translate(0, 123)">
    <path d="M61,8 L47,9 L12,113 L25,113 Z" />
    <path d="M95,8 L82,8 L47,113 L60,113 Z" />
    <path d="M107,9 L108,114 L129,113 L128,39 L155,113 L170,114 L198,37 L197,114 L218,114 L218,9 L190,9 L163,84 L136,10 Z" />
    <path d="M231,9 L254,113 L276,113 L293,45 L310,113 L332,114 L355,9 L334,9 L320,82 L302,9 L284,9 L267,81 L252,9 Z" />
  </g>
</svg>
